<svg width="14" height="14" viewBox="0 0 14 14" xmlns="http://www.w3.org/2000/svg"><title>ic_doubts_monochrome</title><g fill="none" fill-rule="evenodd"><path d="M-5-5h24v24H-5z"/><path d="M11.082 2.332V.899c0-.478-.271-.899-.851-.899H.899A.9.9 0 0 0 0 .9v6.956c0 .502.267.894.9.894h.85v2.918l1.185-1.184c.07.458.344.603.856.603h5.54L12.25 14v-2.918h.85c.65 0 .9-.445.9-.889V3.231a.9.9 0 0 0-.9-.9h-2.018zM8.755 4.378a.878.878 0 1 1-1.755 0 .878.878 0 0 1 1.755 0zM5.546 3.5a.878.878 0 1 1-.005 0h.005zm-2.52 0a.878.878 0 1 1-.006 0h.005zm10.443 6.693c0 .307-.099.307-.39.307h-1.41v2.09L9.573 10.5H3.769c-.317 0-.29-.582-.29-.582L4.646 8.75h5.584c.802 0 .877-.467.877-.894V2.918h2.014c.174 0 .315.14.347.313v6.962z" fill="#9B9B9B"/></g></svg>