<svg width="25" height="22" viewBox="0 0 25 22" xmlns="http://www.w3.org/2000/svg"><title>Fill 783</title><path d="M24.993 10.578a10.901 10.901 0 0 0-3.506-7.642 10.96 10.96 0 0 0-7.89-2.929 10.811 10.811 0 0 0-7.724 3.63C4.29 5.402 3.318 7.634 3.023 10.09l-1.48-2.114a.848.848 0 0 0-1.181-.208.846.846 0 0 0-.209 1.178l2.966 4.231.017.019a.836.836 0 0 0 .07.08c.018.017.033.036.052.052a.85.85 0 0 0 .202.127c.032.015.063.03.097.041.025.008.05.012.075.017a.832.832 0 0 0 .102.019c.01 0 .019.004.028.004a.71.71 0 0 0 .052.002c.01 0 .02-.003.032-.004.01 0 .021.002.032.001.02-.001.04-.007.06-.01a.839.839 0 0 0 .079-.014.903.903 0 0 0 .094-.03c.022-.01.044-.016.065-.027a.769.769 0 0 0 .092-.052c.018-.012.037-.022.055-.035a.846.846 0 0 0 .084-.076c.012-.012.026-.02.037-.033l3.813-4.231a.845.845 0 0 0-.063-1.195.849.849 0 0 0-1.197.063l-2.31 2.562c.23-2.178 1.068-4.15 2.45-5.694a9.13 9.13 0 0 1 6.522-3.065 9.251 9.251 0 0 1 6.675 2.478 9.221 9.221 0 0 1 2.965 6.464 9.213 9.213 0 0 1-2.48 6.664 9.248 9.248 0 0 1-6.475 2.96.847.847 0 0 0 .03 1.692h.032a10.937 10.937 0 0 0 7.655-3.5c2-2.15 3.04-4.947 2.932-7.878" fill="#55BBEA" fill-rule="evenodd"/></svg>